<?xml version="1.0" encoding="UTF-8" standalone="no"?>
<svg
   version="1.0"
   width="150"
   height="40.7"
   id="svg151"
   sodipodi:docname="banner.svg"
   inkscape:version="1.2 (dc2aedaf03, 2022-05-15)"
   xmlns:inkscape="http://www.inkscape.org/namespaces/inkscape"
   xmlns:sodipodi="http://sodipodi.sourceforge.net/DTD/sodipodi-0.dtd"
   xmlns="http://www.w3.org/2000/svg"
   xmlns:svg="http://www.w3.org/2000/svg">
  <defs
     id="defs155" />
  <sodipodi:namedview
     id="namedview153"
     pagecolor="#ffffff"
     bordercolor="#666666"
     borderopacity="1.0"
     inkscape:showpageshadow="2"
     inkscape:pageopacity="0.0"
     inkscape:pagecheckerboard="0"
     inkscape:deskcolor="#d1d1d1"
     showgrid="false"
     showguides="true"
     inkscape:zoom="4.9077535"
     inkscape:cx="80.586769"
     inkscape:cy="29.748845"
     inkscape:window-width="1920"
     inkscape:window-height="1017"
     inkscape:window-x="-8"
     inkscape:window-y="-8"
     inkscape:window-maximized="1"
     inkscape:current-layer="g149">
    <sodipodi:guide
       position="86.801425,8.506045"
       orientation="0,-1"
       id="guide5710"
       inkscape:locked="false" />
  </sodipodi:namedview>
  <g
     fill="#ffffff"
     transform="translate(0,0)"
     id="g149">
    <path
       style="fill:#000000;paint-order:fill markers stroke;stroke-width:1.2;stroke-dasharray:none"
       d="m 121.76567,13.4375 -3.41992,10.001953 h 6.90235 z"
       id="path2759" />
    <path
       style="fill:#2196f3;fill-opacity:1;stroke:#2196f3;stroke-width:7.91567;stroke-linecap:round;stroke-linejoin:round;stroke-dasharray:none;stroke-opacity:1;paint-order:stroke fill markers"
       d="M 108.98804,6.0902421 V 34.79845 h 33.8704 V 6.0902421 Z"
       id="rect423" />
    <path
       id="text580"
       style="font-size:32.0173px;line-height:1.25;font-family:'Myanmar Text';-inkscape-font-specification:'Myanmar Text';fill:#ffffff;stroke-width:0.800434"
       d="M 14.412109 8.5410156 C 13.77635 8.5410156 13.24047 8.6658807 12.802734 8.9160156 C 12.375421 9.1557282 12.026839 9.4750468 11.755859 9.8710938 C 11.495302 10.267141 11.243619 10.766601 11.003906 11.371094 C 10.774616 11.965164 10.576913 12.47503 10.410156 12.902344 L 4.5488281 27.787109 C 4.3091155 28.38118 4.137426 28.844221 4.0332031 29.177734 C 3.9289802 29.511248 3.875 29.833816 3.875 30.146484 C 3.875 30.688443 4.1006698 31.174249 4.5488281 31.601562 C 4.9969865 32.028876 5.512055 32.242188 6.0957031 32.242188 C 6.7835741 32.242188 7.2778318 32.044484 7.5800781 31.648438 C 7.8823245 31.241968 8.2484675 30.464811 8.6757812 29.318359 L 9.7695312 26.378906 L 19.087891 26.378906 L 20.181641 29.255859 C 20.327553 29.610217 20.499242 30.021231 20.697266 30.490234 C 20.905711 30.948815 21.098212 31.294147 21.275391 31.523438 C 21.45257 31.742306 21.671083 31.913995 21.931641 32.039062 C 22.192198 32.174552 22.506314 32.242188 22.871094 32.242188 C 23.496431 32.242188 24.027108 32.023674 24.464844 31.585938 C 24.913002 31.137779 25.136719 30.646771 25.136719 30.115234 C 25.136719 29.604542 24.902597 28.787716 24.433594 27.662109 L 18.447266 12.871094 C 18.165864 12.131111 17.929789 11.543205 17.742188 11.105469 C 17.565009 10.65731 17.341292 10.241093 17.070312 9.8554688 C 16.809755 9.4698441 16.461174 9.1557282 16.023438 8.9160156 C 15.596124 8.6658807 15.058291 8.5410156 14.412109 8.5410156 z M 77.509766 8.7285156 C 76.93654 8.7285156 76.429924 8.9281718 75.992188 9.3242188 C 75.564874 9.7098434 75.351562 10.204101 75.351562 10.808594 C 75.351562 11.47562 75.559671 11.990689 75.976562 12.355469 C 76.403876 12.720249 76.915695 12.902344 77.509766 12.902344 C 78.082991 12.902344 78.577249 12.720249 78.994141 12.355469 C 79.411032 11.980266 79.619141 11.465198 79.619141 10.808594 C 79.619141 10.131145 79.405829 9.6141234 78.978516 9.2597656 C 78.551202 8.9054078 78.062147 8.7285156 77.509766 8.7285156 z M 57.232422 8.9316406 C 56.211038 8.9316406 55.46705 9.1521077 54.998047 9.5898438 C 54.529044 10.02758 54.292969 10.75596 54.292969 11.777344 L 54.292969 29.443359 C 54.292969 30.360521 54.508233 31.059637 54.935547 31.539062 C 55.362861 32.008065 55.924754 32.242188 56.623047 32.242188 C 57.290073 32.242188 57.843514 32.002863 58.28125 31.523438 C 58.718986 31.044012 58.9375 30.339693 58.9375 29.412109 L 58.9375 22.923828 L 63.189453 22.923828 C 66.034738 22.923828 68.176959 22.325516 69.615234 21.126953 C 71.05351 19.917968 71.771484 18.145139 71.771484 15.810547 C 71.771484 14.716207 71.594592 13.730941 71.240234 12.855469 C 70.885877 11.979997 70.365605 11.241211 69.677734 10.636719 C 69.000286 10.032226 68.191912 9.6004009 67.253906 9.3398438 C 66.305478 9.0688643 64.95082 8.9316406 63.189453 8.9316406 L 57.232422 8.9316406 z M 45.492188 9.0878906 C 45.106563 9.0878906 44.757981 9.1834926 44.445312 9.3710938 C 44.132644 9.5482726 43.891366 9.7823947 43.724609 10.074219 C 43.557853 10.355621 43.453799 10.693797 43.412109 11.089844 C 43.380843 11.475468 43.365234 12.011348 43.365234 12.699219 L 43.365234 15.263672 L 42.896484 15.263672 C 42.250303 15.263672 41.756045 15.409348 41.412109 15.701172 C 41.078596 15.982574 40.912109 16.348717 40.912109 16.796875 C 40.912109 17.245033 41.073393 17.614426 41.396484 17.90625 C 41.719575 18.198074 42.187819 18.34375 42.802734 18.34375 L 43.365234 18.34375 L 43.365234 26.535156 C 43.365234 27.858787 43.469289 28.916891 43.677734 29.708984 C 43.896602 30.501078 44.351192 31.122154 45.039062 31.570312 C 45.726933 32.018471 46.738213 32.242188 48.072266 32.242188 C 49.479274 32.242188 50.558189 32.060093 51.308594 31.695312 C 52.058998 31.330532 52.433594 30.803105 52.433594 30.115234 C 52.433594 29.708765 52.293121 29.370589 52.011719 29.099609 C 51.740739 28.818208 51.433779 28.677734 51.089844 28.677734 C 50.850131 28.677734 50.515204 28.724559 50.087891 28.818359 C 49.660577 28.901738 49.322401 28.943359 49.072266 28.943359 C 48.613685 28.943359 48.280711 28.834102 48.072266 28.615234 C 47.874242 28.385944 47.749377 28.094592 47.697266 27.740234 C 47.655576 27.375454 47.634766 26.858433 47.634766 26.191406 L 47.634766 18.34375 L 48.431641 18.34375 C 49.275846 18.34375 49.920982 18.22929 50.369141 18 C 50.827721 17.77071 51.058594 17.370101 51.058594 16.796875 C 51.058594 16.348717 50.895357 15.982574 50.572266 15.701172 C 50.259597 15.409348 49.801758 15.263672 49.197266 15.263672 L 47.634766 15.263672 L 47.634766 12.355469 C 47.634766 11.636331 47.593144 11.084843 47.509766 10.699219 C 47.43681 10.303172 47.252762 9.9701982 46.960938 9.6992188 C 46.523201 9.2927495 46.034146 9.0878906 45.492188 9.0878906 z M 58.9375 12.417969 L 62.064453 12.417969 C 64.138488 12.417969 65.508755 12.758098 66.175781 13.435547 C 66.769852 14.071306 67.066406 14.893335 67.066406 15.904297 C 67.066406 16.748502 66.873906 17.432011 66.488281 17.953125 C 66.102657 18.474239 65.538811 18.848835 64.798828 19.078125 C 64.069268 19.307415 63.158793 19.421875 62.064453 19.421875 L 58.9375 19.421875 L 58.9375 12.417969 z M 14.380859 13.435547 L 17.835938 22.892578 L 10.988281 22.892578 L 14.380859 13.435547 z M 30.296875 14.888672 C 28.910711 14.888672 28.216797 15.847924 28.216797 17.765625 L 28.216797 29.646484 C 28.216797 30.501112 28.4145 31.148201 28.810547 31.585938 C 29.206594 32.023674 29.71321 32.242188 30.328125 32.242188 C 30.953462 32.242188 31.468531 32.028876 31.875 31.601562 C 32.281469 31.163826 32.484375 30.511534 32.484375 29.646484 L 32.484375 26.082031 C 32.484375 24.80009 32.525997 23.715973 32.609375 22.830078 C 32.692753 21.933761 32.845585 21.16376 33.064453 20.517578 C 33.283321 19.871396 33.590281 19.385591 33.986328 19.0625 C 34.382375 18.728987 34.892241 18.5625 35.517578 18.5625 C 35.976159 18.5625 36.503586 18.661352 37.097656 18.859375 C 37.702149 19.046976 38.081947 19.140625 38.238281 19.140625 C 38.655173 19.140625 39.040173 18.974138 39.394531 18.640625 C 39.759311 18.29669 39.941406 17.864864 39.941406 17.34375 C 39.941406 16.603768 39.519987 16.008705 38.675781 15.560547 C 37.831576 15.112389 36.96077 14.888672 36.064453 14.888672 C 35.168136 14.888672 34.450162 15.112389 33.908203 15.560547 C 33.376666 16.008705 32.854442 16.671403 32.34375 17.546875 C 32.312483 16.671403 32.140794 16.008705 31.828125 15.560547 C 31.515456 15.112389 31.005591 14.888672 30.296875 14.888672 z M 77.462891 14.888672 C 76.837553 14.888672 76.325734 15.101983 75.929688 15.529297 C 75.544063 15.956611 75.351562 16.593295 75.351562 17.4375 L 75.351562 29.646484 C 75.351562 30.480267 75.544063 31.122154 75.929688 31.570312 C 76.325734 32.018471 76.837553 32.242188 77.462891 32.242188 C 78.088228 32.242188 78.603296 32.023674 79.009766 31.585938 C 79.416235 31.148201 79.619141 30.501112 79.619141 29.646484 L 79.619141 17.3125 C 79.619141 16.551673 79.416235 15.956611 79.009766 15.529297 C 78.603296 15.101983 78.088228 14.888672 77.462891 14.888672 z M 85.029297 14.888672 C 84.456071 14.888672 83.99303 15.049956 83.638672 15.373047 C 83.284314 15.696138 83.105469 16.075936 83.105469 16.513672 C 83.105469 17.076475 83.403976 17.739173 83.998047 18.5 L 87.421875 23.111328 L 83.560547 28.646484 C 82.976899 29.480267 82.683594 30.120201 82.683594 30.568359 C 82.683594 31.006095 82.870891 31.398252 83.246094 31.742188 C 83.631718 32.075701 84.096713 32.242188 84.638672 32.242188 C 85.128519 32.242188 85.529128 32.106917 85.841797 31.835938 C 86.164888 31.564958 86.555091 31.110369 87.013672 30.474609 L 90.1875 25.925781 L 93.283203 30.474609 C 93.720939 31.089524 94.107893 31.538911 94.441406 31.820312 C 94.785342 32.101714 95.201559 32.242188 95.691406 32.242188 C 96.243787 32.242188 96.706829 32.080903 97.082031 31.757812 C 97.457234 31.434722 97.644531 31.047768 97.644531 30.599609 C 97.644531 30.161873 97.342774 29.511534 96.738281 28.646484 L 92.876953 23.111328 L 96.300781 18.5 C 96.61345 18.093531 96.842369 17.744949 96.988281 17.453125 C 97.144616 17.150879 97.222656 16.836763 97.222656 16.513672 C 97.222656 16.065514 97.035359 15.685716 96.660156 15.373047 C 96.295376 15.049956 95.832335 14.888672 95.269531 14.888672 C 94.779684 14.888672 94.366716 15.023942 94.033203 15.294922 C 93.710112 15.565901 93.325111 16.015288 92.876953 16.640625 L 90.1875 20.423828 L 87.421875 16.640625 C 86.984139 16.036132 86.597185 15.591949 86.263672 15.310547 C 85.940581 15.029145 85.529567 14.888672 85.029297 14.888672 z " />
    <g
       aria-label="AI"
       id="text4949"
       style="font-size:32.8431px;line-height:1.25;font-family:'Arial Rounded MT Bold';-inkscape-font-specification:'Arial Rounded MT Bold, ';stroke-width:0.821079">
      <path
         d="m 127.42292,29.211713 -1.12256,-2.950747 h -9.55786 l -1.12257,3.014894 q -0.6575,1.764033 -1.12256,2.389464 -0.46507,0.609393 -1.52349,0.609393 -0.89805,0 -1.58763,-0.657503 -0.68957,-0.657504 -0.68957,-1.491411 0,-0.4811 0.16036,-0.994273 0.16037,-0.513174 0.52921,-1.427264 L 117.4,12.437355 q 0.25659,-0.657503 0.6094,-1.571593 0.36884,-0.9301272 0.76976,-1.5395207 0.41695,-0.6093934 1.07445,-0.9782369 0.67355,-0.3848801 1.65178,-0.3848801 0.99428,0 1.65178,0.3848801 0.67354,0.3688435 1.07446,0.9622003 0.41695,0.5933568 0.68957,1.2829333 0.28866,0.67354 0.72165,1.812144 l 6.14205,15.170691 q 0.72165,1.73196 0.72165,2.517757 0,0.81787 -0.68958,1.507447 -0.67354,0.67354 -1.63574,0.67354 -0.56128,0 -0.9622,-0.208477 -0.40092,-0.19244 -0.67354,-0.52921 -0.27262,-0.352807 -0.59336,-1.05842 -0.30469,-0.72165 -0.52921,-1.266897 z m -9.42956,-6.526925 h 7.02406 l -3.5441,-9.702186 z"
         id="path7910" />
      <path
         d="M 136.19498,29.37208 V 10.849725 q 0,-1.4433003 0.6575,-2.1649505 0.65751,-0.7216502 1.69989,-0.7216502 1.07446,0 1.73196,0.7216502 0.67354,0.7056135 0.67354,2.1649505 V 29.37208 q 0,1.459337 -0.67354,2.180987 -0.6575,0.72165 -1.73196,0.72165 -1.02634,0 -1.69989,-0.72165 -0.6575,-0.737687 -0.6575,-2.180987 z"
         id="path7912" />
    </g>
  </g>
</svg>
