<svg version="1.0" xmlns="http://www.w3.org/2000/svg" xmlns:xlink="http://www.w3.org/1999/xlink" width="174.08" height="40.7">
    <g fill="#ffffff" transform="translate(0,0)">
        <g transform="translate(0,0)">
            <g>
                <rect fill="#1A1A1A" fill-opacity="0" stroke-width="2" x="0" y="0" width="33.53362750956023"
                    height="40.698619466666955"></rect> <svg x="0" y="0" width="33.53362750956023"
                    height="40.698619466666955"
                    style="overflow: visible;">
                    <svg xmlns="http://www.w3.org/2000/svg"
                        viewBox="-0.00007530645234510303 0 47.130428314208984 57.200347900390625">
                        <g>
                            <g>
                                <path
                                    d="M36.15 47.47H16.7a6.69 6.69 0 0 1-6.7-6.75v-4.23a6.69 6.69 0 0 1 6.75-6.75h19.64c3.67-.2 10.23-1.43 10.74-7.73V16c0-10.41-7.44-16-16.7-16h-24v8.12a1.27 1.27 0 0 0 1.24 1.26h22.76a6.45 6.45 0 0 1 6.86 6.75V19A1.27 1.27 0 0 1 36 20.25H16.7A16.65 16.65 0 0 0 0 36.95v3.55a16.65 16.65 0 0 0 16.7 16.7h26.77a3.61 3.61 0 0 0 3.66-3.66v-6.07z"
                                    fill="#fff"></path>
                                <path
                                    d="M19 32.41c-3.49 0-6.24 2.07-6.24 4.69V40c0 2.63 2.75 4.69 6.24 4.69h28.13V32.41z"
                                    fill="#6495ed"></path>
                            </g>
                        </g>
                    </svg></svg>
            </g>
        </g>
        <g transform="translate(40.533626556396484,4.7193098068237305)">
            <g>
                <g transform="scale(1)">
                    <g>
                        <path
                            d="M18.55-0.79L11.3-22.93 4.09-0.79 4.09-0.82Q3.89-0.33 3.54-0.02 3.2 0.3 2.7 0.3L2.7 0.3Q2.44 0.3 2.19 0.25 1.94 0.2 1.68 0.13L1.68 0.13 1.71 0.13Q-0.16-0.46 0.33-1.98L0.33-1.98 7.84-24.81Q8.01-25.34 8.42-25.7 8.83-26.06 9.39-26.13L9.39-26.13Q9.95-26.23 10.48-26.28 11-26.33 11.3-26.33L11.3-26.33Q11.6-26.33 12.12-26.28 12.65-26.23 13.21-26.16L13.21-26.16Q13.67-26.09 14.12-25.67 14.56-25.24 14.79-24.81L14.79-24.81Q16.64-19.14 18.53-13.39 20.43-7.64 22.27-1.98L22.27-1.98Q22.73-0.46 20.89 0.13L20.89 0.13Q20.63 0.2 20.41 0.25 20.2 0.3 19.93 0.3L19.93 0.3Q19.47 0.3 19.09-0.02 18.71-0.33 18.55-0.82L18.55-0.82 18.55-0.79ZM13.77-7.91L13.77-7.91Q13.77-6.85 13.03-6.11 12.29-5.37 11.24-5.37L11.24-5.37Q10.18-5.37 9.46-6.11 8.73-6.85 8.73-7.91L8.73-7.91Q8.73-8.96 9.46-9.7 10.18-10.44 11.24-10.44L11.24-10.44Q12.29-10.44 13.03-9.7 13.77-8.96 13.77-7.91ZM28.5-14.99L28.5-1.38Q28.5 0.2 26.69 0.2L26.69 0.2Q24.81 0.2 24.81-1.38L24.81-1.38 24.81-15.02Q24.81-17.73 26.42-18.78L26.42-18.78Q28.04-19.83 30.15-19.83L30.15-19.83 33.9-19.83Q35.12-19.83 35.12-18.29L35.12-18.29Q35.19-16.74 33.9-16.74L33.9-16.74 30.41-16.74Q29.22-16.74 28.86-16.28 28.5-15.81 28.5-14.99L28.5-14.99ZM44.97-16.74L42.24-16.74 42.24-4.74Q42.24-3.89 42.6-3.43 42.96-2.97 44.15-2.97L44.15-2.97 45.01-2.97Q46.29-2.97 46.23-1.45L46.23-1.45Q46.23 0.1 45.01 0.1L45.01 0.1 43.92 0.1Q42.87 0.1 41.94-0.18 41.02-0.46 40.16-0.99L40.16-0.99 40.16-0.96Q38.55-2.01 38.55-4.71L38.55-4.71 38.55-16.74 37.26-16.74Q36.08-16.74 36.01-18.29L36.01-18.29Q36.01-19.83 37.26-19.83L37.26-19.83 38.55-19.83 38.55-23.36Q38.55-24.94 40.43-24.94L40.43-24.94Q42.24-24.94 42.24-23.36L42.24-23.36 42.24-19.83 44.97-19.83Q46.26-19.83 46.19-18.29L46.19-18.29Q46.19-16.74 44.97-16.74L44.97-16.74ZM59.67 0L55.75 0Q54.56 0 54.5-1.55L54.5-1.55Q54.5-3.1 55.75-3.1L55.75-3.1 59.08-3.1Q60.29-3.1 60.81-3.79 61.32-4.48 61.32-5.27L61.32-5.27 61.32-14.56Q61.32-15.39 60.81-16.1 60.29-16.8 59.04-16.74L59.04-16.74 52.72-16.74 52.72 3.06Q52.72 4.61 50.9 4.61L50.9 4.61Q49.09 4.61 49.09 3.03L49.09 3.03 49.09-17.89Q49.09-19.04 49.69-19.44 50.28-19.83 51.14-19.83L51.14-19.83 59.67-19.83Q60.53-19.83 61.4-19.54 62.27-19.24 63.19-18.71L63.19-18.71Q63.98-18.15 64.46-17.15 64.94-16.14 64.94-14.79L64.94-14.79 64.94-5.04Q64.94-2.34 63.19-1.19L63.19-1.19Q61.35 0 59.67 0L59.67 0ZM72.78-18.38L72.78-1.38Q72.78 0.2 70.97 0.2L70.97 0.2Q69.12 0.2 69.12-1.38L69.12-1.38 69.12-18.38Q69.12-19.97 70.97-19.97L70.97-19.97Q72.78-19.97 72.78-18.38L72.78-18.38ZM73.47-24.12L73.47-24.12Q73.47-23.06 72.75-22.34 72.02-21.61 70.97-21.61L70.97-21.61Q69.92-21.61 69.17-22.34 68.43-23.06 68.43-24.12L68.43-24.12Q68.43-25.21 69.17-25.93 69.92-26.65 70.97-26.65L70.97-26.65Q72.02-26.65 72.75-25.93 73.47-25.21 73.47-24.12ZM90.71-17.43L85.57-10.08 91.1-2.27Q91.33-1.94 91.33-1.55L91.33-1.55Q91.33-0.86 90.34-0.16L90.34-0.16Q89.72 0.26 89.16 0.26L89.16 0.26Q88.83 0.26 88.48 0.03 88.14-0.2 87.84-0.56L87.84-0.56 83.33-6.92Q82.83-6.23 82.25-5.4 81.68-4.58 81.08-3.74 80.49-2.9 79.92-2.08 79.34-1.25 78.84-0.56L78.84-0.56Q78.22 0.26 77.49 0.26L77.49 0.26Q76.87 0.26 76.31-0.16L76.31-0.16Q75.85-0.49 75.6-0.81 75.35-1.12 75.35-1.52L75.35-1.52Q75.35-1.91 75.62-2.27L75.62-2.27 81.08-10.08Q79.87-11.83 78.51-13.74 77.16-15.65 75.94-17.43L75.94-17.43Q75.81-17.66 75.7-17.94 75.58-18.22 75.58-18.38L75.58-18.38Q75.58-19.08 76.5-19.67L76.5-19.67 76.47-19.67Q76.8-19.83 77.08-19.95 77.36-20.07 77.63-20.07L77.63-20.07Q78.51-20.07 79.17-19.11L79.17-19.11 83.33-13.21 87.48-19.11Q88.17-20.07 89.03-20.07L89.03-20.07Q89.32-20.07 89.59-19.95 89.85-19.83 90.18-19.67L90.18-19.67 90.15-19.67Q91.1-19.08 91.1-18.38L91.1-18.38Q91.1-17.99 90.71-17.43L90.71-17.43ZM120.03-0.79L112.78-22.93 105.56-0.79 105.56-0.82Q105.37-0.33 105.02-0.02 104.68 0.3 104.18 0.3L104.18 0.3Q103.92 0.3 103.67 0.25 103.42 0.2 103.16 0.13L103.16 0.13 103.19 0.13Q101.31-0.46 101.81-1.98L101.81-1.98 109.32-24.81Q109.49-25.34 109.9-25.7 110.31-26.06 110.87-26.13L110.87-26.13Q111.43-26.23 111.96-26.28 112.48-26.33 112.78-26.33L112.78-26.33Q113.08-26.33 113.6-26.28 114.13-26.23 114.69-26.16L114.69-26.16Q115.15-26.09 115.6-25.67 116.04-25.24 116.27-24.81L116.27-24.81Q118.12-19.14 120.01-13.39 121.91-7.64 123.75-1.98L123.75-1.98Q124.21-0.46 122.37 0.13L122.37 0.13Q122.1 0.2 121.89 0.25 121.68 0.3 121.41 0.3L121.41 0.3Q120.95 0.3 120.57-0.02 120.19-0.33 120.03-0.82L120.03-0.82 120.03-0.79ZM115.25-7.91L115.25-7.91Q115.25-6.85 114.51-6.11 113.77-5.37 112.71-5.37L112.71-5.37Q111.66-5.37 110.94-6.11 110.21-6.85 110.21-7.91L110.21-7.91Q110.21-8.96 110.94-9.7 111.66-10.44 112.71-10.44L112.71-10.44Q113.77-10.44 114.51-9.7 115.25-8.96 115.25-7.91ZM130.77-24.74L130.77-1.38Q130.77 0.2 128.79 0.2L128.79 0.2Q126.85 0.2 126.85-1.38L126.85-1.38 126.85-24.74Q126.85-26.33 128.79-26.33L128.79-26.33Q130.77-26.33 130.77-24.74L130.77-24.74Z"
                            transform="translate(-0.2282627820968628, 26.649999618530273)"></path>
                    </g> 
                </g>
            </g>
        </g>
    </g>
</svg>